<svg xmlns="http://www.w3.org/2000/svg" viewBox="0 0 900 1200"><rect width="900" height="1200" fill="#120f14"/><circle cx="450" cy="360" r="260" fill="#4b2330" opacity=".5"/><path d="M450 150 C590 310 670 540 760 1000 C570 1110 330 1110 140 1000 C230 540 310 310 450 150Z" fill="#1c1720" stroke="#d12634" stroke-width="18"/><path d="M450 150 C515 230 580 285 660 330 C560 390 340 390 240 330 C320 285 385 230 450 150Z" fill="#d12634"/><path d="M260 1010 C390 1065 510 1065 640 1010" fill="none" stroke="#9d7cc5" stroke-width="18" stroke-linecap="round"/><g fill="#fff2d4"><rect x="95" y="730" width="26" height="150" rx="12"/><rect x="780" y="730" width="26" height="150" rx="12"/></g></svg>