<svg xmlns="http://www.w3.org/2000/svg" viewBox="0 0 900 1200"><rect width="900" height="1200" fill="#fffafc"/><circle cx="450" cy="560" r="330" fill="#f2edf8"/><path d="M450 130 L545 250 L540 400 L720 980 Q450 1100 180 980 L360 400 L355 250Z" fill="#ffffff" stroke="#dfd7e8" stroke-width="10"/><path d="M450 130 L545 250 L450 300 L355 250Z" fill="#e9dfef"/><path d="M245 965 C360 1030 540 1030 655 965" fill="none" stroke="#9d7cc5" stroke-width="16"/><g fill="#fff0d4"><rect x="130" y="760" width="24" height="150" rx="10"/><rect x="746" y="760" width="24" height="150" rx="10"/></g><g fill="#ffc46f"><path d="M142 735 C122 766 162 766 142 735Z"/><path d="M758 735 C738 766 778 766 758 735Z"/></g></svg>