<svg xmlns="http://www.w3.org/2000/svg" viewBox="0 0 1600 1000" role="img" aria-labelledby="title"><title id="title">Altar de terreiro com velas, guias e tecido ritual</title><defs><linearGradient id="g" x1="0" x2="1" y1="0" y2="1"><stop stop-color="#19151d"/><stop offset="1" stop-color="#50335f"/></linearGradient><radialGradient id="light" cx="50%" cy="40%" r="60%"><stop stop-color="#f6d3a1" stop-opacity=".45"/><stop offset="1" stop-color="#000" stop-opacity="0"/></radialGradient></defs><rect width="1600" height="1000" fill="url(#g)"/><rect width="1600" height="1000" fill="url(#light)"/><path d="M0 750 C260 665 430 840 720 720 C1010 600 1250 660 1600 545 L1600 1000 L0 1000Z" fill="#0f0d12" opacity=".72"/><g transform="translate(250 220)"><path d="M390 120 C330 220 295 330 265 500 L620 500 C590 330 555 220 495 120Z" fill="#f7f4ef"/><path d="M390 120 C425 150 460 150 495 120 L470 235 L415 235Z" fill="#24202a"/><path d="M255 500 C380 545 505 545 630 500" fill="none" stroke="#d7c7e8" stroke-width="18" stroke-linecap="round"/></g><g transform="translate(980 245)"><rect x="0" y="210" width="360" height="42" rx="20" fill="#3b2c45"/><g fill="#fff4db"><rect x="40" y="62" width="34" height="160" rx="14"/><rect x="155" y="20" width="34" height="202" rx="14"/><rect x="270" y="86" width="34" height="136" rx="14"/></g><g fill="#ffc46f"><path d="M57 42 C37 73 78 73 57 42Z"/><path d="M172 0 C151 34 194 34 172 0Z"/><path d="M287 66 C267 97 308 97 287 66Z"/></g><circle cx="180" cy="252" r="92" fill="none" stroke="#d12634" stroke-width="14" stroke-dasharray="18 18"/><circle cx="180" cy="252" r="122" fill="none" stroke="#9d7cc5" stroke-width="12" stroke-dasharray="14 16"/></g></svg>