<svg xmlns="http://www.w3.org/2000/svg" viewBox="0 0 900 1200"><defs><linearGradient id="bg" x1="0" x2="1" y1="0" y2="1"><stop stop-color="#f7f2fb"/><stop offset="1" stop-color="#fff"/></linearGradient></defs><rect width="900" height="1200" fill="url(#bg)"/><circle cx="140" cy="160" r="110" fill="#9d7cc5" opacity=".18"/><circle cx="750" cy="980" r="150" fill="#d12634" opacity=".1"/><path d="M450 190 L560 300 L560 420 L760 900 Q450 1040 140 900 L340 420 L340 300Z" fill="#fff" stroke="#d8d2df" stroke-width="10"/><path d="M450 190 L560 300 L450 335 L340 300Z" fill="#25222b"/><path d="M170 910 C330 980 570 980 730 910" fill="none" stroke="#9d7cc5" stroke-width="18" stroke-linecap="round"/><g fill="#fff4d6"><rect x="90" y="760" width="28" height="150" rx="12"/><rect x="785" y="720" width="28" height="190" rx="12"/></g><g fill="#ffc46f"><path d="M104 735 C84 766 124 766 104 735Z"/><path d="M799 695 C779 726 819 726 799 695Z"/></g></svg>